<svg id="svg" version="1.1" xmlns="http://www.w3.org/2000/svg" xmlns:xlink="http://www.w3.org/1999/xlink" width="400" height="224.9560632688928" viewBox="0, 0, 400,224.9560632688928"><g id="svgg"><path id="path0" d="M307.417 71.564 C 306.665 72.316,307.426 74.666,308.615 75.263 C 311.106 76.515,313.873 74.169,312.899 71.631 C 312.761 71.273,307.769 71.212,307.417 71.564 M245.925 73.895 C 244.122 74.680,244.660 77.329,246.624 77.329 C 248.651 77.329,249.227 74.669,247.368 73.892 C 246.639 73.588,246.633 73.588,245.925 73.895 M311.731 76.638 C 309.995 77.554,309.518 80.139,310.850 81.414 C 312.881 83.360,316.155 82.166,316.166 79.476 C 316.175 77.083,313.785 75.553,311.731 76.638 M242.913 81.778 C 242.003 82.746,242.662 84.359,243.968 84.359 C 245.379 84.359,246.111 82.691,245.112 81.753 C 244.541 81.217,243.428 81.229,242.913 81.778 M313.817 83.837 C 311.576 84.508,311.263 87.860,313.343 88.921 C 315.293 89.916,317.237 88.874,317.358 86.769 C 317.483 84.580,315.851 83.228,313.817 83.837 M242.016 89.743 C 241.595 90.277,241.589 90.321,241.839 90.978 C 242.163 91.830,243.277 92.048,243.937 91.388 C 244.685 90.640,244.061 89.279,242.970 89.279 C 242.542 89.279,242.280 89.407,242.016 89.743 M311.951 121.265 L 311.951 151.670 315.554 151.670 L 319.156 151.670 319.156 121.265 L 319.156 90.861 315.554 90.861 L 311.951 90.861 311.951 121.265 M324.253 121.265 L 324.253 151.670 327.856 151.670 L 331.459 151.670 331.459 139.719 L 331.459 127.768 334.930 127.767 C 342.244 127.764,344.555 126.459,345.603 121.741 C 346.030 119.821,345.916 97.351,345.473 96.081 C 343.805 91.299,342.671 90.868,331.766 90.864 L 324.253 90.861 324.253 121.265 M337.786 97.631 C 338.150 97.842,338.562 98.305,338.796 98.767 L 339.192 99.547 339.191 109.132 C 339.189 122.041,339.368 121.614,333.963 121.616 L 331.459 121.617 331.459 109.387 L 331.459 97.158 334.315 97.217 C 336.794 97.268,337.251 97.323,337.786 97.631 " stroke="none" fill="#7b818c" fill-rule="evenodd"></path><path id="path1" d="M53.954 132.996 L 53.954 151.670 57.469 151.670 L 60.984 151.670 60.984 138.214 L 60.984 124.758 64.048 124.813 C 69.224 124.906,68.792 123.609,68.854 139.236 L 68.904 151.670 72.427 151.670 L 75.949 151.670 75.877 139.236 C 75.797 125.730,75.810 125.907,74.796 124.176 C 74.195 123.150,73.251 122.393,72.007 121.938 L 70.992 121.566 72.212 120.976 C 74.326 119.953,75.518 117.872,75.545 115.158 L 75.553 114.411 72.330 114.411 L 69.107 114.411 69.021 114.982 C 68.525 118.290,67.810 118.805,63.714 118.805 L 60.984 118.805 60.984 116.615 L 60.984 114.425 57.469 114.374 L 53.954 114.323 53.954 132.996 M239.367 134.095 L 239.367 151.670 242.707 151.670 L 246.046 151.670 246.044 134.754 C 246.043 125.450,245.993 117.542,245.933 117.179 L 245.824 116.520 242.596 116.520 L 239.367 116.520 239.367 134.095 M80.886 134.446 C 80.942 143.185,80.986 144.503,81.252 145.431 C 82.641 150.278,85.708 152.167,91.885 151.978 C 99.308 151.752,101.747 148.820,101.754 140.114 L 101.757 136.380 98.418 136.380 L 95.079 136.380 95.079 139.863 C 95.079 143.315,95.075 143.355,94.596 144.301 C 93.309 146.841,89.292 146.841,88.005 144.301 L 87.522 143.346 87.522 137.315 L 87.522 131.283 94.640 131.283 L 101.757 131.283 101.757 127.944 L 101.757 124.605 98.418 124.605 L 95.079 124.605 95.079 125.483 L 95.079 126.362 91.301 126.362 L 87.522 126.362 87.522 125.491 L 87.522 124.619 84.172 124.568 L 80.822 124.517 80.886 134.446 M112.141 124.605 C 109.209 124.670,108.182 124.749,108.128 124.912 C 108.088 125.033,108.145 125.132,108.256 125.132 C 108.366 125.132,108.413 125.203,108.359 125.290 C 107.915 126.009,110.604 128.284,115.290 131.154 C 121.448 134.926,121.441 134.915,121.441 140.504 C 121.441 145.534,120.870 146.460,117.752 146.478 C 114.046 146.499,113.533 145.806,113.533 140.779 L 113.533 137.434 110.262 137.434 L 106.992 137.434 107.071 141.344 C 107.239 149.583,109.719 152.028,117.898 152.018 C 123.856 152.011,126.899 150.233,127.849 146.206 C 128.164 144.868,128.235 135.982,127.942 134.439 C 127.367 131.406,125.287 129.344,120.255 126.823 C 119.167 126.278,118.278 125.872,118.278 125.921 C 118.278 125.970,118.117 125.849,117.920 125.653 C 117.723 125.456,117.494 125.337,117.411 125.388 C 117.328 125.439,117.213 125.358,117.155 125.208 C 117.097 125.057,116.979 124.978,116.891 125.032 C 116.804 125.086,116.686 125.007,116.628 124.856 C 116.570 124.705,116.450 124.627,116.361 124.682 C 116.272 124.737,116.172 124.723,116.140 124.650 C 116.107 124.577,114.308 124.556,112.141 124.605 M186.467 138.049 L 186.467 151.670 189.807 151.670 L 193.146 151.670 193.146 138.598 C 193.146 131.409,193.096 125.280,193.036 124.978 L 192.926 124.429 189.697 124.429 L 186.467 124.429 186.467 138.049 M200.879 138.049 L 200.879 151.670 204.306 151.670 L 207.733 151.670 207.733 138.049 L 207.733 124.429 204.306 124.429 L 200.879 124.429 200.879 138.049 M214.084 125.044 C 214.167 125.334,214.352 125.658,214.496 125.764 C 214.640 125.871,214.717 125.998,214.667 126.047 C 214.237 126.478,217.193 128.738,222.091 131.723 C 227.328 134.915,227.232 134.753,227.237 140.310 C 227.242 145.824,226.827 146.487,223.374 146.477 C 219.954 146.467,219.443 145.757,219.363 140.905 L 219.306 137.434 216.141 137.434 L 212.977 137.434 213.045 141.520 C 213.179 149.511,215.350 151.783,223.037 151.980 C 231.935 152.208,234.092 149.901,234.092 140.158 C 234.092 132.010,233.180 130.389,226.793 127.191 C 225.724 126.656,224.439 125.976,223.937 125.680 C 223.434 125.383,223.020 125.198,223.018 125.268 C 223.015 125.338,222.931 125.255,222.831 125.084 C 222.731 124.913,222.576 124.819,222.485 124.875 C 222.394 124.931,222.320 124.896,222.320 124.797 C 222.320 124.680,220.839 124.599,218.127 124.567 L 213.933 124.517 214.084 125.044 M289.982 125.439 L 289.982 126.362 286.116 126.362 L 282.250 126.362 282.250 125.483 L 282.250 124.605 279.108 124.605 L 275.967 124.605 275.857 125.154 C 275.620 126.337,275.748 143.261,276.005 144.700 C 276.891 149.674,280.133 152.021,286.116 152.021 C 293.851 152.021,296.650 148.836,296.658 140.026 L 296.661 136.380 293.334 136.380 L 290.008 136.380 289.951 140.026 C 289.873 145.068,289.207 146.126,286.118 146.114 C 282.756 146.100,282.250 144.856,282.250 136.611 L 282.250 131.283 289.455 131.283 L 296.661 131.283 296.661 128.493 C 296.661 126.958,296.612 125.459,296.552 125.161 L 296.444 124.619 293.213 124.568 L 289.982 124.517 289.982 125.439 M160.105 134.167 C 160.105 146.199,160.279 147.291,162.558 149.569 C 165.972 152.983,175.362 152.921,178.549 149.463 C 180.686 147.145,180.837 146.146,180.841 134.315 L 180.844 124.605 177.680 124.605 C 175.940 124.605,174.501 124.624,174.482 124.649 C 174.464 124.673,174.404 128.884,174.351 134.007 C 174.242 144.408,174.281 144.095,172.944 145.220 C 171.648 146.311,169.008 146.203,167.815 145.009 C 166.639 143.834,166.608 143.551,166.608 134.085 C 166.608 129.475,166.559 125.456,166.498 125.154 L 166.388 124.605 163.247 124.605 L 160.105 124.605 160.105 134.167 M252.951 125.123 C 252.931 125.411,252.987 125.692,253.075 125.747 C 253.164 125.801,253.199 125.942,253.155 126.060 C 253.110 126.178,253.944 131.953,255.008 138.894 C 256.072 145.835,256.942 151.549,256.942 151.592 C 256.942 151.634,258.998 151.670,261.511 151.670 C 264.332 151.670,266.081 151.605,266.081 151.500 C 266.081 151.407,266.282 150.003,266.529 148.380 C 268.269 136.912,269.936 125.413,269.866 125.344 C 269.821 125.298,269.863 125.114,269.960 124.933 C 270.181 124.519,264.336 124.412,264.025 124.824 C 263.934 124.945,263.403 128.682,262.845 133.128 C 261.872 140.883,261.723 141.924,261.600 141.797 C 261.570 141.766,261.095 138.260,260.546 134.007 C 259.997 129.754,259.505 126.156,259.452 126.011 C 259.400 125.866,259.348 125.510,259.336 125.220 L 259.315 124.692 256.151 124.645 L 252.988 124.598 252.951 125.123 M133.406 152.680 L 133.392 173.111 136.731 173.111 L 140.070 173.111 140.070 160.545 C 140.070 153.634,140.130 147.979,140.202 147.979 C 140.275 147.979,140.523 148.334,140.753 148.767 C 142.721 152.478,148.893 153.250,152.160 150.193 C 154.230 148.257,154.482 147.050,154.482 139.067 L 154.482 132.689 151.230 132.689 C 149.442 132.689,147.968 132.709,147.956 132.733 C 147.943 132.757,147.883 135.189,147.824 138.137 C 147.720 143.276,147.698 143.532,147.307 144.326 C 146.305 146.360,143.053 146.834,141.468 145.177 C 140.201 143.851,140.070 143.141,140.070 137.594 L 140.070 132.689 136.834 132.689 C 134.409 132.689,133.575 132.634,133.508 132.469 C 133.460 132.348,133.413 141.443,133.406 152.680 " stroke="none" fill="#1c64dc" fill-rule="evenodd"></path><path id="path2" d="M275.954 52.317 C 273.111 53.718,274.282 58.345,277.480 58.347 C 280.874 58.350,282.041 53.831,279.051 52.269 C 278.409 51.933,276.678 51.960,275.954 52.317 M284.534 52.186 C 281.550 52.786,280.771 56.583,283.245 58.470 C 284.104 59.125,286.301 59.199,287.103 58.600 C 290.354 56.173,288.442 51.401,284.534 52.186 M268.717 53.625 C 266.712 54.424,266.325 57.163,268.016 58.586 C 270.011 60.265,272.759 58.933,272.759 56.287 C 272.759 54.199,270.692 52.837,268.717 53.625 M291.292 54.719 C 288.319 56.067,289.422 60.834,292.707 60.834 C 296.933 60.834,297.126 54.740,292.905 54.530 C 292.252 54.497,291.617 54.572,291.292 54.719 M261.807 56.669 C 260.907 56.991,260.525 57.366,260.179 58.274 C 259.199 60.839,262.557 63.075,264.488 61.144 C 266.546 59.086,264.519 55.702,261.807 56.669 M298.120 58.692 C 297.093 59.318,296.554 60.536,296.744 61.802 C 297.255 65.212,302.607 64.702,302.632 61.241 C 302.648 59.126,299.928 57.590,298.120 58.692 M255.473 61.159 C 253.832 61.669,253.241 63.823,254.409 65.043 C 255.941 66.642,258.524 65.672,258.524 63.498 C 258.524 61.766,257.081 60.660,255.473 61.159 M304.256 64.088 C 302.697 64.857,302.165 67.393,303.283 68.723 C 305.133 70.921,308.787 69.692,308.787 66.872 C 308.787 64.631,306.280 63.091,304.256 64.088 M250.146 66.981 C 249.284 67.224,248.682 68.059,248.682 69.012 C 248.682 71.129,251.662 71.832,252.637 69.945 C 253.499 68.279,251.976 66.466,250.146 66.981 M308.875 69.977 C 306.856 71.094,307.146 71.447,310.035 71.388 C 312.838 71.332,312.910 71.306,312.170 70.617 C 311.262 69.770,309.773 69.480,308.875 69.977 " stroke="none" fill="#26af84" fill-rule="evenodd"></path><path id="path3" d="M53.956 94.236 C 53.957 96.101,54.007 98.043,54.068 98.550 L 54.179 99.473 57.473 99.473 C 61.204 99.473,60.977 99.573,60.982 97.935 L 60.984 97.188 63.489 97.189 C 66.803 97.190,68.717 97.932,68.717 99.217 C 68.717 99.432,69.261 99.473,72.160 99.473 L 75.603 99.473 75.497 98.152 C 75.216 94.642,73.533 92.192,70.765 91.264 C 69.971 90.998,68.875 90.953,61.907 90.902 L 53.954 90.845 53.956 94.236 M239.367 98.155 L 239.367 102.285 242.707 102.285 L 246.046 102.285 246.046 98.155 L 246.046 94.025 242.707 94.025 L 239.367 94.025 239.367 98.155 M87.986 107.302 C 84.859 107.924,82.751 109.664,81.725 112.471 L 81.401 113.357 85.414 113.357 C 88.229 113.357,89.446 113.298,89.492 113.159 C 89.535 113.030,90.166 112.961,91.301 112.961 C 92.435 112.961,93.066 113.030,93.109 113.159 C 93.215 113.476,101.230 113.434,101.230 113.117 C 101.230 112.579,99.927 110.324,99.190 109.587 C 97.028 107.425,92.260 106.453,87.986 107.302 M114.006 107.301 C 110.756 107.947,108.027 110.341,107.702 112.830 L 107.645 113.269 111.062 113.317 C 114.001 113.358,114.567 113.322,115.104 113.062 C 116.329 112.469,118.927 112.432,119.927 112.994 C 120.519 113.326,120.862 113.357,124.014 113.357 L 127.455 113.357 127.340 112.873 C 126.282 108.433,120.489 106.012,114.006 107.301 M144.168 107.346 C 142.413 107.973,140.788 109.514,140.079 111.226 C 139.682 112.185,139.555 111.832,139.505 109.622 L 139.455 107.469 136.424 107.421 L 133.392 107.373 133.393 110.936 C 133.394 112.896,133.445 114.914,133.506 115.422 L 133.617 116.344 136.926 116.344 C 139.795 116.344,140.222 116.309,140.134 116.081 C 140.078 115.936,140.120 115.817,140.227 115.817 C 140.334 115.817,140.422 115.697,140.422 115.550 C 140.422 115.403,140.614 114.978,140.850 114.605 C 142.640 111.770,146.664 112.356,147.659 115.598 L 147.889 116.344 151.185 116.344 L 154.482 116.344 154.482 115.035 C 154.482 111.412,152.843 108.590,150.131 107.544 C 148.691 106.988,145.468 106.881,144.168 107.346 M167.444 107.200 C 163.811 107.860,161.066 110.177,160.720 112.873 L 160.658 113.357 164.853 113.357 C 167.196 113.357,169.092 113.286,169.147 113.196 C 169.202 113.108,169.780 113.070,170.432 113.113 C 174.236 113.361,180.316 113.368,180.316 113.124 C 180.316 109.101,173.713 106.062,167.444 107.200 M197.879 107.260 C 196.107 107.761,194.474 109.142,193.590 110.887 C 192.948 112.155,192.794 111.884,192.794 109.480 L 192.794 107.381 189.631 107.381 L 186.467 107.381 186.467 110.369 L 186.467 113.357 190.817 113.354 C 194.157 113.352,195.330 113.293,195.870 113.098 C 196.790 112.767,198.015 112.765,198.946 113.093 C 199.524 113.297,200.580 113.357,203.633 113.357 L 207.574 113.357 207.464 112.610 C 206.884 108.671,202.177 106.043,197.879 107.260 M219.772 107.310 C 216.508 108.036,214.087 110.157,213.614 112.704 L 213.491 113.370 217.010 113.350 C 220.151 113.332,220.605 113.292,221.239 112.978 C 222.249 112.478,224.511 112.484,225.835 112.988 C 226.688 113.313,227.177 113.357,230.009 113.357 L 233.216 113.357 233.216 112.945 C 233.216 111.629,231.254 109.133,229.540 108.267 C 227.248 107.111,222.681 106.663,219.772 107.310 M282.777 107.304 C 279.658 107.976,277.166 110.175,276.364 112.961 L 276.250 113.357 280.140 113.357 C 282.749 113.357,284.155 113.290,284.410 113.153 C 284.879 112.902,287.729 112.915,288.206 113.171 C 288.419 113.285,290.012 113.357,292.329 113.357 L 296.105 113.357 295.924 112.698 C 294.740 108.392,288.881 105.988,282.777 107.304 M250.265 107.689 C 250.270 108.408,251.130 113.415,251.274 113.559 C 251.640 113.924,257.731 113.651,257.751 113.269 C 257.760 113.076,257.625 111.810,257.450 110.457 C 257.275 109.104,257.129 107.858,257.125 107.689 C 257.118 107.407,256.835 107.381,253.691 107.381 C 250.543 107.381,250.264 107.406,250.265 107.689 M266.081 107.608 C 266.081 107.733,265.964 108.742,265.821 109.849 C 265.678 110.957,265.525 112.278,265.481 112.786 L 265.402 113.708 268.455 113.708 C 270.452 113.708,271.549 113.643,271.626 113.518 C 271.742 113.329,272.569 108.273,272.578 107.689 C 272.583 107.407,272.313 107.381,269.332 107.381 C 266.793 107.381,266.081 107.431,266.081 107.608 " stroke="none" fill="#348aeb" fill-rule="evenodd"></path><path id="path4" d="M54.027 106.239 L 54.042 114.323 57.513 114.371 L 60.984 114.419 60.964 106.638 C 60.953 102.359,60.907 98.996,60.863 99.165 C 60.790 99.444,60.477 99.473,57.467 99.473 L 54.151 99.473 54.081 98.814 C 54.043 98.451,54.018 101.793,54.027 106.239 M68.782 99.868 C 68.840 100.086,68.902 103.704,68.919 107.909 C 68.935 112.113,68.981 115.297,69.020 114.982 L 69.091 114.411 72.331 114.411 L 75.571 114.411 75.571 106.942 L 75.571 99.473 72.124 99.473 L 68.676 99.473 68.782 99.868 M239.367 102.548 C 239.367 102.773,239.855 102.812,242.707 102.812 C 245.558 102.812,246.046 102.773,246.046 102.548 C 246.046 102.323,245.558 102.285,242.707 102.285 C 239.855 102.285,239.367 102.323,239.367 102.548 M239.367 111.951 L 239.367 116.520 242.607 116.520 L 245.847 116.520 245.920 117.004 C 245.960 117.269,246.005 115.213,246.019 112.434 L 246.046 107.381 242.707 107.381 L 239.367 107.381 239.367 111.951 M233.231 113.056 C 233.215 113.406,226.857 113.453,226.098 113.110 C 225.878 113.010,225.927 113.096,226.231 113.343 C 227.086 114.035,227.148 114.306,227.241 117.750 L 227.329 121.002 230.556 121.050 L 233.783 121.098 233.696 117.447 C 233.647 115.439,233.526 113.559,233.427 113.269 C 233.319 112.955,233.240 112.869,233.231 113.056 M160.572 113.137 C 160.264 113.636,160.105 115.965,160.105 119.980 L 160.105 124.605 163.269 124.605 C 166.422 124.605,166.432 124.606,166.467 125.000 C 166.486 125.217,166.546 123.260,166.599 120.650 C 166.708 115.307,166.865 114.618,168.172 113.752 L 168.769 113.357 164.690 113.357 C 162.016 113.357,160.649 113.296,160.721 113.181 C 160.780 113.084,160.790 113.005,160.741 113.005 C 160.693 113.005,160.617 113.065,160.572 113.137 M169.991 113.131 C 170.257 113.171,170.692 113.171,170.958 113.131 C 171.224 113.091,171.006 113.058,170.475 113.058 C 169.943 113.058,169.725 113.091,169.991 113.131 M180.334 113.137 C 180.321 113.306,179.376 113.357,176.248 113.357 L 172.180 113.357 172.777 113.752 C 174.084 114.618,174.241 115.307,174.349 120.650 C 174.402 123.260,174.461 125.217,174.481 125.000 C 174.517 124.606,174.527 124.605,177.680 124.605 L 180.844 124.605 180.836 119.815 C 180.831 116.450,180.758 114.713,180.590 113.972 C 180.459 113.392,180.344 113.016,180.334 113.137 M287.982 113.326 C 288.669 113.653,289.399 114.435,289.731 115.202 C 289.815 115.395,289.926 117.570,289.977 120.035 L 290.070 124.517 293.266 124.565 C 296.411 124.612,296.463 124.619,296.545 125.004 C 296.591 125.219,296.605 122.904,296.577 119.859 C 296.548 116.815,296.468 114.109,296.398 113.846 L 296.271 113.369 292.292 113.305 C 290.103 113.270,288.076 113.183,287.786 113.112 C 287.372 113.010,287.415 113.056,287.982 113.326 M107.452 114.027 C 107.212 115.629,107.488 123.051,107.819 123.902 L 108.127 124.692 112.060 124.642 C 115.920 124.593,116.502 124.495,115.598 124.051 C 115.380 123.945,114.925 123.539,114.587 123.151 L 113.972 122.444 113.918 118.588 C 113.869 115.003,113.890 114.684,114.219 114.051 L 114.574 113.371 111.070 113.320 L 107.565 113.269 107.452 114.027 M124.021 113.317 L 120.538 113.364 120.946 114.020 C 121.326 114.631,121.357 114.888,121.411 117.882 L 121.469 121.090 124.619 121.090 L 127.768 121.090 127.747 117.619 C 127.736 115.710,127.676 113.950,127.615 113.708 L 127.504 113.269 124.021 113.317 M199.913 113.809 C 200.779 114.675,200.879 115.322,200.879 120.099 L 200.879 124.429 204.306 124.429 L 207.733 124.429 207.733 118.899 L 207.733 113.369 203.553 113.319 L 199.373 113.269 199.913 113.809 M216.900 113.317 L 213.325 113.364 213.385 118.430 C 213.432 122.397,213.497 123.559,213.686 123.787 C 213.819 123.947,213.868 124.077,213.796 124.077 C 213.724 124.077,213.753 124.183,213.861 124.313 C 213.969 124.443,214.024 124.581,213.985 124.621 C 213.945 124.660,215.768 124.670,218.035 124.642 C 220.809 124.609,222.121 124.533,222.045 124.411 C 221.984 124.311,221.893 124.270,221.844 124.319 C 221.705 124.458,220.385 123.172,220.061 122.583 C 219.540 121.635,219.637 114.623,220.182 113.885 C 220.693 113.194,221.078 113.261,216.900 113.317 M81.165 114.104 C 81.014 114.618,80.943 116.355,80.938 119.684 L 80.931 124.517 84.227 124.565 L 87.522 124.612 87.523 120.347 C 87.524 115.595,87.609 115.056,88.521 114.047 L 89.145 113.357 85.264 113.357 L 81.384 113.357 81.165 114.104 M94.080 114.047 C 94.992 115.056,95.077 115.595,95.078 120.343 L 95.079 124.605 98.418 124.605 L 101.757 124.605 101.757 119.977 C 101.757 117.218,101.677 114.946,101.557 114.353 L 101.357 113.357 97.407 113.357 L 93.456 113.357 94.080 114.047 M186.467 118.893 L 186.467 124.429 189.719 124.429 C 192.963 124.429,192.970 124.430,193.007 124.824 C 193.027 125.042,193.086 123.282,193.139 120.914 L 193.234 116.608 193.795 115.424 C 194.103 114.773,194.554 114.041,194.797 113.798 L 195.239 113.357 190.853 113.357 L 186.467 113.357 186.467 118.893 M276.206 113.501 C 275.905 113.988,275.752 116.503,275.772 120.650 C 275.785 123.260,275.829 125.217,275.871 125.000 C 275.947 124.608,275.971 124.605,279.081 124.605 L 282.214 124.605 282.281 120.255 C 282.355 115.474,282.488 114.812,283.583 113.797 L 284.058 113.357 280.177 113.357 C 278.042 113.357,276.255 113.422,276.206 113.501 M251.142 113.671 C 251.142 113.698,251.467 115.794,251.864 118.328 C 252.261 120.862,252.627 123.307,252.677 123.763 L 252.767 124.590 256.068 124.641 C 257.884 124.669,259.337 124.640,259.297 124.575 C 259.257 124.511,259.184 124.037,259.134 123.521 C 259.018 122.311,258.008 114.433,257.911 113.972 C 257.845 113.664,251.142 113.365,251.142 113.671 M268.458 113.708 L 265.299 113.796 264.647 118.893 C 264.289 121.696,263.990 124.148,263.984 124.341 C 263.972 124.681,264.068 124.691,267.036 124.641 C 269.786 124.594,270.100 124.558,270.102 124.289 C 270.103 124.124,270.463 121.696,270.902 118.893 C 271.341 116.090,271.682 113.757,271.659 113.708 C 271.636 113.660,270.195 113.660,268.458 113.708 M133.421 123.580 C 133.405 128.284,133.440 132.258,133.499 132.411 C 133.591 132.650,134.052 132.689,136.834 132.689 L 140.063 132.689 140.111 124.517 L 140.158 116.344 136.874 116.344 L 133.589 116.344 133.520 115.685 C 133.482 115.323,133.438 118.875,133.421 123.580 M147.831 125.088 C 147.847 129.897,147.891 133.574,147.930 133.260 L 148.001 132.689 151.241 132.689 L 154.482 132.689 154.482 124.517 L 154.482 116.344 151.142 116.344 L 147.803 116.344 147.831 125.088 " stroke="none" fill="#2778e6" fill-rule="evenodd"></path></g></svg>