<?xml version="1.0" encoding="UTF-8"?>
<svg version="1.1" xmlns="http://www.w3.org/2000/svg" width="2000" height="1000">
<path d="M0 0 C98.96323529 0 98.96323529 0 110.77734375 10.59375 C124.14983064 25.0210641 123.46487973 43.78087585 123.43359375 62.12109375 C123.43816236 64.47176768 123.44346994 66.82244027 123.44947815 69.17311096 C123.45838044 74.08429411 123.45601874 78.9953144 123.44604492 83.90649414 C123.43455568 90.17148706 123.45478155 96.43591629 123.48396206 102.70083523 C123.50238746 107.55072037 123.50201901 112.40047198 123.49632454 117.25038338 C123.49617212 119.55903985 123.50215013 121.86770584 123.51461601 124.17632866 C123.65113215 153.59725882 123.65113215 153.59725882 114.703125 164.28515625 C110.08512924 168.93492721 105.44420687 172.38894828 99 174 C101.03113584 175.0178604 103.06255885 176.02983398 105.11328125 177.0078125 C113.97913013 181.51160074 118.86557663 187.39818313 122.2734375 196.703125 C125.59126782 207.19174987 125.14704817 218.5108589 125.11352539 229.40942383 C125.11367142 230.67928635 125.11381744 231.94914886 125.1139679 233.25749207 C125.11425142 236.69464381 125.10842757 240.1317597 125.10139394 243.56890321 C125.09508542 247.17766268 125.09455073 250.78642324 125.09336853 254.39518738 C125.09027711 261.20879436 125.08209362 268.02238504 125.07201904 274.83598489 C125.06078942 282.60155351 125.0553303 290.36712296 125.05032361 298.1326977 C125.03990885 314.08847615 125.02159103 330.04423217 125 346 C111.8 346 98.6 346 85 346 C84.98541748 341.86670166 84.97083496 337.73340332 84.95581055 333.47485352 C84.90545411 319.81229612 84.83900647 306.14985662 84.76428509 292.48741245 C84.71937768 284.20459328 84.67995143 275.92181661 84.65356445 267.63891602 C84.63054334 260.41697799 84.59709959 253.19517506 84.55129844 245.97334427 C84.52742148 242.15174529 84.5086566 238.33027965 84.50238609 234.50860786 C84.49631006 230.90603886 84.47622034 227.30381078 84.44572449 223.70136833 C84.43284031 221.76009979 84.43450729 219.81875144 84.4367218 217.87744141 C84.31930282 206.17960938 84.31930282 206.17960938 78.5 196.5 C66.9258919 189.55553514 54.35133405 193.43488891 40 193 C40 243.49 40 293.98 40 346 C26.8 346 13.6 346 0 346 C0 231.82 0 117.64 0 0 Z M40 36 C40 76.59 40 117.18 40 159 C69.04967257 161.82666101 69.04967257 161.82666101 80 154 C84.74802902 147.1823173 85.14997058 141.39595767 85.16113281 133.29760742 C85.16609772 132.43190628 85.17106262 131.56620514 85.17617798 130.67427063 C85.19075065 127.81799517 85.19759329 124.96177524 85.203125 122.10546875 C85.2088803 120.11395772 85.21463798 118.12244669 85.22039795 116.13093567 C85.23089388 111.95732364 85.23674582 107.78373079 85.24023438 103.61010742 C85.24571737 98.27383274 85.2697473 92.93781342 85.29820633 87.60161877 C85.31687006 83.48797372 85.32204029 79.37438975 85.32357025 75.26070595 C85.32658865 73.29400549 85.33458963 71.3273059 85.34775543 69.3606472 C85.36489476 66.60376149 85.36291654 63.84749419 85.35644531 61.09057617 C85.3656601 60.28562714 85.37487488 59.4806781 85.3843689 58.65133667 C85.33556065 51.98150825 84.01373888 46.51717359 79.75 41.1875 C67.74850937 31.64085973 56.41111594 36 40 36 Z " fill="#226FE1" transform="translate(307,517)"/>
<path d="M0 0 C2.0627267 1.43528132 3.85600743 2.95262624 5.6796875 4.6796875 C6.60201172 5.52466797 6.60201172 5.52466797 7.54296875 6.38671875 C15.86973547 14.85612816 18.82994391 26.59417219 18.82685852 38.17210388 C18.83053521 38.91787172 18.8342119 39.66363956 18.838 40.43200642 C18.84899732 42.92660182 18.85287401 45.42115551 18.85668945 47.91577148 C18.86295729 49.7065799 18.86960437 51.49738703 18.87660217 53.28819275 C18.89761393 59.16737976 18.90800462 65.04656693 18.91796875 70.92578125 C18.92201794 72.95399552 18.92613491 74.98220966 18.93031883 77.01042366 C18.94936732 86.54439367 18.96359683 96.07835597 18.9719308 105.61234134 C18.98169018 116.59407077 19.00797719 127.57559794 19.04843169 138.55725616 C19.07866984 147.05941794 19.09340712 155.56152202 19.09671181 164.0637365 C19.09905428 169.13466345 19.10790915 174.20537426 19.13317299 179.27624321 C19.15659254 184.05419377 19.16063158 188.83178801 19.15041161 193.60978127 C19.14991943 195.35354173 19.15614483 197.09732056 19.16996765 198.84102631 C19.28474934 214.19229633 17.65191493 228.21652687 6.609375 239.86328125 C-4.37883966 250.29634221 -15.36197553 251.16316355 -29.87109375 250.9453125 C-40.26075376 250.58565008 -46.69191911 247.24983559 -54.1484375 240.06640625 C-61.3203125 232.18508318 -61.3203125 232.18508318 -61.3203125 227.6796875 C-61.9803125 227.6796875 -62.6403125 227.6796875 -63.3203125 227.6796875 C-63.3203125 274.8696875 -63.3203125 322.0596875 -63.3203125 370.6796875 C-75.8603125 370.6796875 -88.4003125 370.6796875 -101.3203125 370.6796875 C-101.3203125 247.2596875 -101.3203125 123.8396875 -101.3203125 -3.3203125 C-90.1003125 -3.3203125 -78.8803125 -3.3203125 -67.3203125 -3.3203125 C-66.3203125 -2.3203125 -66.3203125 -2.3203125 -66.20678711 -0.00366211 C-66.21202393 0.99656982 -66.21726074 1.99680176 -66.22265625 3.02734375 C-66.22587891 4.10693359 -66.22910156 5.18652344 -66.23242188 6.29882812 C-66.24499023 8.00329102 -66.24499023 8.00329102 -66.2578125 9.7421875 C-66.26232422 10.88236328 -66.26683594 12.02253906 -66.27148438 13.19726562 C-66.28331503 16.02479101 -66.2997984 18.8522139 -66.3203125 21.6796875 C-65.6603125 21.6796875 -65.0003125 21.6796875 -64.3203125 21.6796875 C-64.06507813 20.803125 -63.80984375 19.9265625 -63.546875 19.0234375 C-59.99712854 9.34642168 -52.90870671 2.33481403 -44.07421875 -2.56640625 C-30.95986065 -8.47911996 -12.34196234 -7.02286746 0 0 Z M-56.5703125 33.6796875 C-63.30451456 42.7350669 -63.9072159 52.51491652 -63.83789062 63.44750977 C-63.84332312 64.90087583 -63.85045206 66.35423637 -63.85913086 67.80758667 C-63.87723187 71.72291077 -63.8703525 75.63780921 -63.85761452 79.55313993 C-63.84741962 83.66840764 -63.8568979 87.78364123 -63.86315918 91.89891052 C-63.87041601 98.80596395 -63.86089887 105.71284574 -63.84179688 112.61987305 C-63.82002321 120.58449345 -63.82709088 128.54870426 -63.8491025 136.51331478 C-63.86730244 143.37566728 -63.86979272 150.23789707 -63.85934782 157.10026592 C-63.85313915 161.18838294 -63.8522045 165.27630793 -63.86549377 169.36441231 C-63.87711926 173.20847585 -63.86890587 177.05201537 -63.84591675 180.8960228 C-63.8406655 182.29958543 -63.8420814 183.70319281 -63.85096741 185.10673714 C-63.91216253 195.76152288 -62.61585326 205.21110345 -55.0859375 213.2734375 C-50.04949029 217.28476714 -43.59570123 218.35205058 -37.3203125 217.6796875 C-31.34941144 216.34708156 -27.21490818 214.60520556 -23.3203125 209.6796875 C-19.95356342 203.90811765 -19.19768787 198.98362486 -19.17987061 192.37519836 C-19.17416046 191.10382523 -19.16845032 189.83245209 -19.16256714 188.52255249 C-19.16132193 187.12091074 -19.1601968 185.71926888 -19.15917969 184.31762695 C-19.15454825 182.83559547 -19.14952316 181.35356518 -19.14413452 179.87153625 C-19.13103847 175.85062841 -19.12457084 171.82973725 -19.12012386 167.80881143 C-19.11718817 165.29354585 -19.1130824 162.77828477 -19.10861969 160.26302147 C-19.09495113 152.38425891 -19.08528175 144.50550672 -19.0814178 136.62673312 C-19.07694072 127.54896631 -19.0594064 118.47135034 -19.0304172 109.39362937 C-19.0087578 102.36582647 -18.99871122 95.33806587 -18.99737668 88.31022996 C-18.99633155 84.11807491 -18.99048644 79.92606178 -18.97255707 75.73394203 C-18.95600289 71.78665863 -18.95395623 67.8396227 -18.96269608 63.89231682 C-18.96346258 62.45004231 -18.95917518 61.00775409 -18.94923782 59.56551361 C-18.79344659 45.7838181 -18.79344659 45.7838181 -24.6953125 33.7421875 C-34.11193987 26.34340885 -47.54249144 24.24459632 -56.5703125 33.6796875 Z " fill="#2371E1" transform="translate(860.3203125,614.3203125)"/>
<path d="M0 0 C98.96323529 0 98.96323529 0 110.77734375 10.59375 C121.38164609 22.03452403 123.46203071 37.36358871 123.40405273 52.35498047 C123.41091599 53.62025574 123.41777924 54.88553101 123.42485046 56.18914795 C123.4425965 59.61910344 123.44164894 63.04880054 123.43590808 66.4787879 C123.43278872 69.36102528 123.43893892 72.24321495 123.44494683 75.12544549 C123.45892984 81.93474598 123.45748331 88.74392085 123.44604492 95.55322266 C123.43457267 102.53622218 123.4486384 109.51883722 123.4754414 116.50178611 C123.49772113 122.53623018 123.50420829 128.57055465 123.49836498 134.60503685 C123.49502298 138.19196364 123.4972236 141.77864425 123.51461601 145.36553574 C123.68494699 184.20759209 123.68494699 184.20759209 110.96484375 198.24609375 C92.74216024 215.76172429 63.54250784 210 41 210 C41 254.88 41 299.76 41 346 C27.47 346 13.94 346 0 346 C0 231.82 0 117.64 0 0 Z M41 36 C41 81.87 41 127.74 41 175 C67.67357037 176.96959649 67.67357037 176.96959649 78 172 C84.01193634 165.98806366 85.2180002 160.51084235 85.29327393 152.29814148 C85.29191437 150.79245354 85.29191437 150.79245354 85.29052734 149.25634766 C85.29724457 148.18567551 85.30396179 147.11500336 85.31088257 146.0118866 C85.32985078 142.47923111 85.3337861 138.94676571 85.3359375 135.4140625 C85.34236583 132.95315473 85.34909422 130.49224772 85.35610962 128.03134155 C85.36807916 122.87504301 85.37179073 117.71881145 85.37060547 112.5625 C85.37040221 105.96281811 85.39771353 99.3635665 85.43214989 92.76398659 C85.45441087 87.68183426 85.45844326 82.59978566 85.45738602 77.51758957 C85.45974282 75.08477672 85.46857073 72.65196106 85.48405075 70.21919632 C85.50369516 66.81330651 85.49787806 63.40834691 85.48583984 60.00244141 C85.50269836 58.50282616 85.50269836 58.50282616 85.51989746 56.97291565 C85.46524497 50.87312669 84.62046515 46.03715769 81 41 C69.37653185 31.55593213 56.72699431 36 41 36 Z " fill="#7A858B" transform="translate(1845,517)"/>
<path d="M0 0 C10.63536094 10.63536094 15.94710016 24.81251912 15.99884033 39.77168274 C15.9880545 41.02757454 15.9880545 41.02757454 15.97705078 42.30883789 C15.97734283 43.21723419 15.97763489 44.12563049 15.97793579 45.06155396 C15.9765544 48.03202223 15.96104983 51.00223237 15.9453125 53.97265625 C15.94157813 56.04487471 15.93873316 58.11709494 15.93673706 60.1893158 C15.92913401 65.61934359 15.90951433 71.04926286 15.8873291 76.47924805 C15.86318331 83.00721748 15.85407384 89.53522339 15.84242249 96.06322479 C15.82308785 105.9588918 15.784742 115.85432109 15.75 125.75 C-10.98 125.75 -37.71 125.75 -65.25 125.75 C-65.188125 136.92875 -65.12625 148.1075 -65.0625 159.625 C-65.05581299 163.13624512 -65.04912598 166.64749023 -65.04223633 170.26513672 C-65.0123058 173.45171104 -65.0123058 173.45171104 -64.97587585 176.63821411 C-64.96291871 178.04188707 -64.95950383 179.4456703 -64.96403503 180.84939575 C-64.98435078 189.60517701 -64.72302687 197.48424322 -59.25 204.75 C-53.73523168 209.46188242 -47.25801965 210.21720131 -40.25 209.75 C-34.30915101 208.45362917 -30.06500854 206.68706988 -26.25 201.75 C-23.33944054 196.14594125 -22.78598667 191.57882399 -22.73828125 185.31640625 C-22.71135445 183.9995005 -22.71135445 183.9995005 -22.68388367 182.6559906 C-22.63006321 179.87487471 -22.59597636 177.09392763 -22.5625 174.3125 C-22.52930192 172.41729436 -22.49480997 170.52211092 -22.45898438 168.62695312 C-22.37193673 164.0012816 -22.31162811 159.37635813 -22.25 154.75 C-9.71 154.75 2.83 154.75 15.75 154.75 C15.81935427 160.77868378 15.87894071 166.80595003 15.91479492 172.8347168 C15.92976168 174.88001225 15.95014239 176.92527628 15.97631836 178.97045898 C16.20820535 197.57143324 15.38546962 215.59134125 1.78125 229.94140625 C-15.42268155 245.25952222 -37.57123408 244.85547549 -59.25 243.75 C-68.62388047 242.70958555 -76.60634958 239.17356482 -84.25 233.75 C-85.136875 233.1725 -86.02375 232.595 -86.9375 232 C-99.42747208 219.84759474 -103.1874947 203.25713704 -103.51069641 186.37199402 C-103.5254469 183.65009467 -103.52991439 180.9295618 -103.5246582 178.20776367 C-103.52901742 176.69487764 -103.53420454 175.18199381 -103.54014587 173.66911316 C-103.55341784 169.59866521 -103.5541278 165.52831078 -103.55158257 161.45784545 C-103.55050468 158.04136752 -103.55541701 154.62490789 -103.560188 151.20843393 C-103.5712426 143.1382093 -103.57174363 135.06803124 -103.56567383 126.99780273 C-103.55963859 118.71409654 -103.57194297 110.43056039 -103.5932439 102.14688319 C-103.61094425 94.99652543 -103.61684801 87.84622138 -103.61360615 80.69584256 C-103.61180638 76.44214672 -103.61429717 72.18857217 -103.62832069 67.93489647 C-103.64103261 63.93002052 -103.63883091 59.92540675 -103.62590981 55.92053413 C-103.62357314 54.46465332 -103.62617187 53.00875327 -103.63453293 51.55289459 C-103.73641712 32.40726067 -100.94949936 15.06917624 -87.40625 0.80859375 C-65.18279208 -20.27636735 -23.46730602 -16.24659648 0 0 Z M-59.078125 26.36328125 C-59.54734375 26.92402344 -60.0165625 27.48476563 -60.5 28.0625 C-60.97953125 28.61550781 -61.4590625 29.16851563 -61.953125 29.73828125 C-64.84120093 34.21827855 -65.49917718 38.69500753 -65.47705078 43.93896484 C-65.47689972 45.13975677 -65.47674866 46.34054871 -65.47659302 47.57772827 C-65.46627045 48.85918732 -65.45594788 50.14064636 -65.4453125 51.4609375 C-65.4415779 52.79757474 -65.43873304 54.13421474 -65.43673706 55.47085571 C-65.42913577 58.97255132 -65.40951788 62.4740785 -65.3873291 65.97570801 C-65.36679474 69.55539633 -65.35760926 73.13511294 -65.34765625 76.71484375 C-65.327332 83.72671079 -65.28817722 90.73811655 -65.25 97.75 C-51.06 97.75 -36.87 97.75 -22.25 97.75 C-22.18694941 90.07183928 -22.12686117 82.39462561 -22.09474945 74.71643066 C-22.07896023 71.14026725 -22.05788884 67.56431995 -22.02368164 63.98828125 C-21.99089466 60.53881207 -21.97310668 57.08955143 -21.96536827 53.63993835 C-21.95719269 51.69466264 -21.93380455 49.74946988 -21.91011047 47.80432129 C-21.90867028 40.17321396 -22.02473081 33.5409918 -27.1875 27.47265625 C-28.2084375 26.65087891 -28.2084375 26.65087891 -29.25 25.8125 C-30.2709375 24.96365234 -30.2709375 24.96365234 -31.3125 24.09765625 C-35.22630858 21.37534988 -38.92561878 21.55503717 -43.5625 21.5 C-45.50576172 21.46132813 -45.50576172 21.46132813 -47.48828125 21.421875 C-52.27576169 21.83947454 -55.47548894 23.1840319 -59.078125 26.36328125 Z " fill="#216EE0" transform="translate(563.25,621.25)"/>
<path d="M0 0 C9.63865755 8.1135535 14.48325324 16.91780187 16.625 29.25 C16.87872254 32.37410705 16.88771375 35.4753008 16.86550903 38.6084137 C16.86721788 39.50631793 16.86892673 40.40422217 16.87068737 41.32933563 C16.87396072 44.31412277 16.86301428 47.29868111 16.85205078 50.28344727 C16.8514862 52.43253067 16.85180414 54.58161445 16.85293579 56.73069763 C16.85350848 62.54819497 16.84176772 68.36560946 16.82778788 74.18308759 C16.81526653 80.26894028 16.81410891 86.35479498 16.81173706 92.44065857 C16.80552643 103.95764968 16.78912122 115.47460272 16.76903808 126.99157709 C16.74666614 140.106404 16.73568239 153.22123275 16.72564721 166.33607399 C16.70475465 193.30740447 16.66918281 220.27869849 16.625 247.25 C3.755 247.25 -9.115 247.25 -22.375 247.25 C-22.3843457 241.05677979 -22.39369141 234.86355957 -22.40332031 228.48266602 C-22.43706681 208.03475505 -22.49240159 187.58694478 -22.55890274 167.13911533 C-22.5986994 154.73995817 -22.63108877 142.34086452 -22.64599609 129.94165039 C-22.65900929 119.13355585 -22.68596567 108.32560106 -22.72961307 97.51758522 C-22.75223512 91.79565911 -22.76791022 86.07390541 -22.76688385 80.35193062 C-22.7661377 74.96334928 -22.78407112 69.57514918 -22.81616783 64.18666649 C-22.82466817 62.21185673 -22.82641586 60.23700422 -22.82080269 58.26218414 C-22.81414332 55.55862936 -22.83212939 52.85628072 -22.85601807 50.15284729 C-22.84437744 48.98986763 -22.84437744 48.98986763 -22.83250165 47.80339342 C-22.9222415 42.03767644 -24.37642142 37.20510458 -27.375 32.25 C-32.8502395 27.68730042 -37.77034194 26.85532319 -44.71484375 26.98828125 C-49.20012379 27.42956431 -52.74402315 28.5372012 -56.375 31.25 C-62.62991316 38.97987085 -65.83759379 47.88584089 -65.77372742 57.72888184 C-65.78037424 58.5442606 -65.78702107 59.35963937 -65.79386932 60.19972658 C-65.81240949 62.91127548 -65.80990013 65.62237963 -65.80737305 68.33398438 C-65.8163957 70.28588479 -65.82672415 72.23777955 -65.83825684 74.18966675 C-65.86579379 79.47416349 -65.8751069 84.75855262 -65.88111091 90.0431118 C-65.89050313 95.57114283 -65.91670725 101.09909375 -65.94111633 106.6270752 C-65.9847616 117.0886696 -66.01332073 127.55024844 -66.03643972 138.01190615 C-66.06350192 149.92484951 -66.10741284 161.83771221 -66.15272844 173.75059795 C-66.24554654 198.25036661 -66.31501627 222.75012743 -66.375 247.25 C-78.915 247.25 -91.455 247.25 -104.375 247.25 C-104.375 164.09 -104.375 80.93 -104.375 -4.75 C-92.495 -4.75 -80.615 -4.75 -68.375 -4.75 C-67.9375 6.6875 -67.9375 6.6875 -67.80688477 10.29858398 C-67.7497229 11.69572632 -67.7497229 11.69572632 -67.69140625 13.12109375 C-67.63641968 14.55859985 -67.63641968 14.55859985 -67.58032227 16.02514648 C-67.61665576 18.22138925 -67.61665576 18.22138925 -66.375 19.25 C-66.0346875 18.54875 -65.694375 17.8475 -65.34375 17.125 C-59.43785943 5.56453336 -52.51690388 -0.9099859 -40.375 -5.75 C-27.54642495 -9.27409767 -10.94970945 -7.6480795 0 0 Z " fill="#226FE1" transform="translate(1165.375,615.75)"/>
<path d="M0 0 C10.47499099 9.53401722 15.54191235 23.45353509 16.53310394 37.36356926 C16.7824729 43.67699835 16.71218996 49.99190022 16.66015625 56.30859375 C16.65454838 58.32882367 16.65028393 60.34905772 16.64729309 62.36929321 C16.63593797 67.63984807 16.60655305 72.91014774 16.57318115 78.18060303 C16.53682619 84.52928394 16.52327461 90.87805104 16.50582123 97.22680664 C16.47690866 106.82976634 16.41935665 116.43216811 16.3671875 126.03515625 C-10.6928125 126.03515625 -37.7528125 126.03515625 -65.6328125 126.03515625 C-65.5296875 136.18265625 -65.4265625 146.33015625 -65.3203125 156.78515625 C-65.29541748 159.96495117 -65.27052246 163.14474609 -65.24487305 166.42089844 C-65.21255241 168.97462388 -65.1791744 171.52833626 -65.14453125 174.08203125 C-65.13828735 175.38092285 -65.13204346 176.67981445 -65.12561035 178.01806641 C-64.98530839 187.00759568 -64.49738656 196.19501387 -59.8203125 204.09765625 C-54.13086003 209.13688558 -48.06257965 210.19623521 -40.6328125 210.03515625 C-34.34051749 209.03694514 -29.50844542 207.32011023 -25.6328125 202.03515625 C-22.98853498 196.08442012 -22.17202841 191.19348593 -22.12109375 184.72265625 C-22.09416695 183.44116699 -22.09416695 183.44116699 -22.06669617 182.13378906 C-22.01298632 179.43429339 -21.97882511 176.73497043 -21.9453125 174.03515625 C-21.9121046 172.19268449 -21.87761177 170.35023542 -21.84179688 168.5078125 C-21.75488918 164.01690766 -21.69448699 159.52676024 -21.6328125 155.03515625 C-9.0928125 155.03515625 3.4471875 155.03515625 16.3671875 155.03515625 C16.45991805 160.86687728 16.5392758 166.69595609 16.58691406 172.52783203 C16.60680889 174.50415804 16.63393473 176.48042695 16.66894531 178.45654297 C16.99354536 197.27379885 15.63404266 215.13992653 2.3671875 229.78515625 C-10.27311783 241.63942579 -26.68884891 244.60652097 -43.4453125 244.47265625 C-44.10478882 244.46961487 -44.76426514 244.46657349 -45.44372559 244.46343994 C-59.75360312 244.36578382 -71.79013366 242.63622592 -83.6328125 234.03515625 C-84.27734375 233.58398438 -84.921875 233.1328125 -85.5859375 232.66796875 C-95.68624401 224.89512417 -100.31000439 211.66452614 -102.23088646 199.49938393 C-102.9748418 193.08718266 -102.91954506 186.66823895 -102.9074707 180.22338867 C-102.91182824 178.66961932 -102.91701481 177.11585211 -102.92295837 175.56208801 C-102.93624852 171.37594995 -102.93693822 167.18990272 -102.93439507 163.0037477 C-102.93331842 159.4927834 -102.93822641 155.98183696 -102.9430005 152.47087651 C-102.95406142 144.17873131 -102.95455255 135.88663142 -102.94848633 127.59448242 C-102.9424507 119.07731572 -102.95475499 110.56031438 -102.9760564 102.04317588 C-102.99374555 94.69667747 -102.99966224 87.35023136 -102.99641865 80.00371248 C-102.99461709 75.63098635 -102.99712807 71.25837819 -103.01113319 66.88567162 C-103.02382656 62.7691888 -103.02166032 58.65296133 -103.00872231 54.53648186 C-103.00638168 53.0382554 -103.00899921 51.54001031 -103.01734543 50.04180527 C-103.10719758 32.63814138 -100.7394307 15.49048466 -88.5703125 2.09765625 C-66.06480773 -18.42094487 -23.78707174 -17.75207283 0 0 Z M-60.15234375 27.73046875 C-66.18607209 36.32027221 -65.92032412 46.73511637 -65.828125 56.82421875 C-65.8252951 58.0086557 -65.82246521 59.19309265 -65.81954956 60.41342163 C-65.80843645 64.16243994 -65.7833483 67.91121126 -65.7578125 71.66015625 C-65.74777124 74.21614236 -65.7386474 76.77213225 -65.73046875 79.328125 C-65.71023563 85.56397169 -65.67106935 91.79929047 -65.6328125 98.03515625 C-51.1128125 98.03515625 -36.5928125 98.03515625 -21.6328125 98.03515625 C-21.56975763 90.48725443 -21.50967001 82.94031641 -21.47756195 75.39237976 C-21.46177429 71.87686803 -21.44070588 68.36157622 -21.40649414 64.84619141 C-21.36741497 60.80499237 -21.3530577 56.76402327 -21.33984375 52.72265625 C-21.32435989 51.47339355 -21.30887604 50.22413086 -21.29292297 48.93701172 C-21.29136764 40.83323559 -21.93111727 34.41095569 -26.8828125 27.72265625 C-32.18176921 22.54413038 -36.33789045 21.8371916 -43.5703125 21.59765625 C-50.40377113 21.77901131 -55.46991018 22.50636549 -60.15234375 27.73046875 Z " fill="#216EE0" transform="translate(1671.6328125,620.96484375)"/>
<path d="M0 0 C0.89203125 0.26683594 1.7840625 0.53367187 2.703125 0.80859375 C13.89275517 4.67004588 21.85500679 12.45002722 27 23 C30.08008337 31.21668581 32.11623893 39.08804629 32.14717102 47.87153625 C32.15084771 48.55055612 32.1545244 49.22957599 32.1583125 49.92917222 C32.16929989 52.19798782 32.17318484 54.46675754 32.17700195 56.7355957 C32.18327069 58.36552575 32.18991786 59.99545438 32.19691467 61.62538147 C32.2179211 66.97550468 32.22831874 72.32562804 32.23828125 77.67578125 C32.24233107 79.52316998 32.24644806 81.37055857 32.25063133 83.21794701 C32.26968109 91.90509843 32.28390859 100.59224141 32.2922433 109.27940971 C32.30199383 119.27517944 32.32825696 129.27072645 32.36874419 139.2664178 C32.39902576 147.01108009 32.41372381 154.75567901 32.41702431 162.50039929 C32.41936247 167.11644365 32.42815953 171.73225004 32.45348549 176.34823036 C32.47698077 180.70103531 32.48091452 185.05344927 32.47072411 189.4063015 C32.47023368 190.99119248 32.47640565 192.57610412 32.49028015 194.16093445 C32.62505144 210.48870425 30.17034632 227.0039877 19 239.75 C6.48018051 251.22190509 -10.54776292 253.56766788 -26.8125 253.4375 C-28.12822998 253.43065186 -29.44395996 253.42380371 -30.79956055 253.41674805 C-46.88971086 253.15124714 -61.01228158 250.21901405 -73.15234375 238.99609375 C-82.51361922 228.88274964 -86.09904395 214.57384335 -86.14717102 201.08413696 C-86.15084771 200.41242977 -86.1545244 199.74072259 -86.1583125 199.04866064 C-86.16927524 196.81059004 -86.17318057 194.57256599 -86.17700195 192.33447266 C-86.18327248 190.72409928 -86.18991979 189.11372733 -86.19691467 187.50335693 C-86.21789701 182.22360225 -86.22831536 176.94384749 -86.23828125 171.6640625 C-86.24233175 169.83988811 -86.24644875 168.01571386 -86.25063133 166.19153976 C-86.26967452 157.61438261 -86.28390431 149.03723398 -86.2922433 140.46005976 C-86.30199624 130.59390996 -86.32826848 120.72798567 -86.36874419 110.86191523 C-86.3990275 103.2148965 -86.41372391 95.56794194 -86.41702431 87.92086446 C-86.41936193 83.36407848 -86.42815214 78.80753361 -86.45348549 74.25081253 C-86.47698448 69.95462636 -86.4809131 65.65883632 -86.47072411 61.36260223 C-86.4702338 59.79867347 -86.47640221 58.23472374 -86.49028015 56.67085648 C-86.62500207 40.5687268 -84.25346133 22.97017838 -72.83984375 10.65625 C-54.53277123 -5.82400212 -22.68300908 -7.23725842 0 0 Z M-44.3125 38.125 C-49.3853085 46.76756262 -49.43906986 55.8601344 -49.40405273 65.63842773 C-49.40976633 67.09002199 -49.41673439 68.54161177 -49.42485046 69.99319458 C-49.44268741 73.90857101 -49.44163154 77.82372218 -49.43590808 81.73912692 C-49.43280259 85.0192413 -49.43892369 88.29931326 -49.44494683 91.57942158 C-49.45895923 99.32292227 -49.45745809 107.06631255 -49.44604492 114.80981445 C-49.43456549 122.7738133 -49.44864382 130.73747531 -49.4754414 138.70142978 C-49.49765699 145.56291702 -49.50422267 152.42429897 -49.49836498 159.28581959 C-49.49500835 163.37343837 -49.49732382 167.46084128 -49.51461601 171.54842949 C-49.53017714 175.39410269 -49.5260293 179.23927997 -49.50731087 183.08493423 C-49.50365023 184.48808389 -49.50665893 185.89127105 -49.51719666 187.29438591 C-49.57942706 196.27276322 -49.33470426 205.73999201 -43.35449886 212.99675655 C-38.68208261 217.55631424 -33.67198666 219.0104615 -27.2578125 218.9921875 C-20.24556021 218.55510944 -15.45966365 217.40246217 -10.3125 212.375 C-4.24705132 204.36936619 -4.56180948 195.00881747 -4.59594727 185.38330078 C-4.59023547 183.92200196 -4.58326809 182.4607076 -4.57514954 180.99942017 C-4.55729104 177.0529944 -4.55837279 173.10679187 -4.56409192 169.16033792 C-4.5671948 165.85542053 -4.56107906 162.55054533 -4.55505317 159.24563396 C-4.54103318 151.4431795 -4.54254778 143.64083459 -4.55395508 135.83837891 C-4.56543039 127.81248579 -4.55136485 119.78692706 -4.5245586 111.761078 C-4.50234308 104.84865611 -4.49577746 97.93633873 -4.50163502 91.0238837 C-4.50499226 86.90495152 -4.50267231 82.78623356 -4.48538399 78.6673317 C-4.46982344 74.79130437 -4.47397011 70.91576911 -4.49268913 67.03976059 C-4.49635018 65.62532388 -4.49333984 64.21084996 -4.48280334 62.79644775 C-4.42260708 54.04065234 -4.53892391 44.39604702 -10.41185856 37.29223824 C-16.5179872 31.87012153 -22.71201531 31.56059448 -30.54296875 31.68359375 C-36.43326344 32.22270547 -40.02228873 34.1826437 -44.3125 38.125 Z " fill="#216EE0" transform="translate(997,612)"/>
<path d="M0 0 C9.29800807 8.29620248 13.93798142 19.94734588 15.3203125 32.0703125 C15.62783236 38.29396389 15.50904748 44.52955141 15.4453125 50.7578125 C15.4040625 56.4709375 15.3628125 62.1840625 15.3203125 68.0703125 C3.1103125 68.0703125 -9.0996875 68.0703125 -21.6796875 68.0703125 C-21.9921875 50.4453125 -21.9921875 50.4453125 -22.06762695 44.91552734 C-22.09994037 43.45407605 -22.1333174 41.99264773 -22.16796875 40.53125 C-22.17421265 39.78464111 -22.18045654 39.03803223 -22.18688965 38.26879883 C-22.31681003 33.51135059 -23.06976754 30.19399374 -25.6796875 26.0703125 C-33.49530018 20.04577772 -42.19129545 20.17209983 -51.6796875 21.0703125 C-55.81717089 22.18714368 -58.60796994 23.96402341 -61.6171875 27.0703125 C-64.02099824 31.59513272 -63.85473336 36.21394528 -63.8828125 41.23828125 C-63.89136261 42.42965446 -63.89136261 42.42965446 -63.90008545 43.64509583 C-63.90951822 45.32531409 -63.91606258 47.00555071 -63.91992188 48.68579102 C-63.92958805 51.23161992 -63.96061063 53.77662734 -63.9921875 56.32226562 C-64.55568785 69.38120706 -64.55568785 69.38120706 -59.18432617 80.7590332 C-57.42750241 82.35494929 -55.63117503 83.72085315 -53.6796875 85.0703125 C-53.0830127 85.48893555 -52.48633789 85.90755859 -51.87158203 86.33886719 C-50.02087711 87.58795594 -48.14337697 88.77461641 -46.2421875 89.9453125 C-45.55116943 90.37457031 -44.86015137 90.80382812 -44.14819336 91.24609375 C-39.45927608 94.10903588 -34.68052871 96.66762781 -29.7421875 99.0703125 C-11.06853141 108.18508167 7.69776292 118.03085824 15.1328125 138.7578125 C17.55385627 146.31440365 17.49250856 154.00101948 17.5234375 161.85546875 C17.52913757 162.98875107 17.53483765 164.12203339 17.54071045 165.28965759 C17.55013266 167.68422521 17.55668335 170.07880563 17.56054688 172.47338867 C17.5702154 176.09642823 17.60125108 179.71889109 17.6328125 183.34179688 C17.77416034 213.99338701 17.77416034 213.99338701 9.3203125 226.0703125 C8.88976563 226.69421875 8.45921875 227.318125 8.015625 227.9609375 C0.2498507 238.05205664 -12.54988815 242.02697189 -24.6796875 244.0703125 C-29.35278973 244.31112557 -34.02592538 244.34093697 -38.7043457 244.36547852 C-40.20997601 244.37688602 -41.7155696 244.39715494 -43.22094727 244.42700195 C-60.30809696 244.76478216 -77.85407473 242.19767611 -90.86328125 230.08203125 C-96.30407085 224.05621051 -99.66481353 216.88338495 -101.6796875 209.0703125 C-101.85387207 208.40596191 -102.02805664 207.74161133 -102.20751953 207.05712891 C-102.88704841 202.75859925 -102.80185814 198.52061688 -102.77734375 194.17578125 C-102.7759288 193.22842606 -102.77451385 192.28107086 -102.77305603 191.30500793 C-102.76747361 188.28924355 -102.75492432 185.27355432 -102.7421875 182.2578125 C-102.73717023 180.20898545 -102.73260772 178.16015723 -102.72851562 176.11132812 C-102.71836228 171.09760424 -102.69878338 166.08404217 -102.6796875 161.0703125 C-90.7996875 161.0703125 -78.9196875 161.0703125 -66.6796875 161.0703125 C-66.62361328 164.95490234 -66.62361328 164.95490234 -66.56640625 168.91796875 C-66.52011264 171.44336086 -66.46890762 173.96860935 -66.41723633 176.49389648 C-66.38410983 178.24055149 -66.35604013 179.98731038 -66.33325195 181.73413086 C-66.29947869 184.2541912 -66.24715403 186.77331002 -66.19140625 189.29296875 C-66.18501633 190.06616959 -66.1786264 190.83937042 -66.17204285 191.63600159 C-66.00939579 197.71848846 -64.63965416 202.24796051 -61.1171875 207.3203125 C-54.66632979 211.95169752 -46.42879757 212.99254044 -38.6796875 212.0703125 C-35.26680791 211.26928102 -31.98239776 210.23989613 -28.6796875 209.0703125 C-27.6896875 208.7403125 -26.6996875 208.4103125 -25.6796875 208.0703125 C-24.51015334 205.64648173 -24.51015334 205.64648173 -23.6796875 203.0703125 C-23.3496875 202.4103125 -23.0196875 201.7503125 -22.6796875 201.0703125 C-22.57002774 199.60170163 -22.5206628 198.12835126 -22.50268555 196.65576172 C-22.48343269 195.2832576 -22.48343269 195.2832576 -22.46379089 193.88302612 C-22.45640396 192.8903775 -22.44901703 191.89772888 -22.44140625 190.875 C-22.42929863 189.34288376 -22.42929863 189.34288376 -22.41694641 187.77981567 C-22.40309615 185.61266786 -22.39237823 183.44549814 -22.38452148 181.27832031 C-22.36736473 177.97938968 -22.32349304 174.68147574 -22.27929688 171.3828125 C-22.26916502 169.27604903 -22.26065046 167.16927704 -22.25390625 165.0625 C-22.22764412 163.59174515 -22.22764412 163.59174515 -22.20085144 162.09127808 C-22.22356823 154.83950145 -23.701986 149.68116829 -28.34570312 144.05004883 C-33.94883606 139.34854236 -40.05337297 135.56404697 -46.33642578 131.84869385 C-48.21514052 130.73683065 -50.08682604 129.61390371 -51.95703125 128.48779297 C-56.41169773 125.8074648 -60.87333037 123.13911788 -65.34765625 120.49169922 C-79.85340656 111.89968965 -93.89546797 102.17589172 -99.13671875 85.30859375 C-100.76424525 78.59943773 -100.85619397 72.11292231 -100.8828125 65.2421875 C-100.88851257 64.09800354 -100.89421265 62.95381958 -100.90008545 61.77496338 C-100.90951383 59.35763467 -100.91606082 56.94029323 -100.91992188 54.52294922 C-100.92961685 50.84709965 -100.96065741 47.17181202 -100.9921875 43.49609375 C-100.99871944 41.1406283 -101.00396916 38.78515887 -101.0078125 36.4296875 C-101.0201593 35.34081238 -101.0325061 34.25193726 -101.04522705 33.13006592 C-101.01123416 21.3390953 -97.85345596 11.04515159 -89.93359375 2.09765625 C-67.51862613 -19.1056915 -24.09324194 -17.3499439 0 0 Z " fill="#216FE0" transform="translate(1314.6796875,620.9296875)"/>
<path d="M0 0 C8.89290672 8.40669842 14.01012889 19.89557598 14.56958008 32.11450195 C14.68970267 37.45332961 14.60076951 42.78659278 14.5 48.125 C14.47988976 49.99281924 14.46164705 51.86065955 14.4453125 53.72851562 C14.40514438 58.25747118 14.32679999 62.78343377 14.25 67.3125 C2.37 67.3125 -9.51 67.3125 -21.75 67.3125 C-22.0625 50.75 -22.0625 50.75 -22.13793945 45.56420898 C-22.17026547 44.18731046 -22.20364423 42.81043608 -22.23828125 41.43359375 C-22.24452515 40.73528442 -22.25076904 40.0369751 -22.25720215 39.31750488 C-22.43075878 33.31665275 -23.81295644 28.70152039 -27.625 24 C-32.41036793 20.19985488 -37.1921876 19.97406988 -43.125 20 C-43.85460937 19.98388672 -44.58421875 19.96777344 -45.3359375 19.95117188 C-51.54078121 19.94563184 -56.26851164 21.22282559 -61.125 25.3125 C-63.51469673 28.25366521 -63.87645135 30.74929447 -63.91113281 34.41333008 C-63.92074036 35.23460892 -63.9303479 36.05588776 -63.94024658 36.90205383 C-63.9466214 38.22864265 -63.9466214 38.22864265 -63.953125 39.58203125 C-63.96167511 40.95266975 -63.96167511 40.95266975 -63.97039795 42.35099792 C-63.97984418 44.285175 -63.98638043 46.21936815 -63.99023438 48.15356445 C-63.99992873 51.10331536 -64.03095098 54.05236607 -64.0625 57.00195312 C-64.06903148 58.88280837 -64.07428138 60.76366859 -64.078125 62.64453125 C-64.0904718 63.5228511 -64.1028186 64.40117096 -64.11553955 65.30610657 C-64.094247 71.20010492 -63.17554229 75.41976883 -59.26953125 80.078125 C-49.21971969 88.81709157 -37.54395937 95.03540138 -25.625 100.8125 C-16.59788747 105.1935553 -8.60676912 110.05697458 -0.75 116.3125 C0.28769531 117.12332031 1.32539062 117.93414063 2.39453125 118.76953125 C10.32623414 125.83319552 14.79498075 135.92753993 16.25 146.3125 C16.3459134 148.27980855 16.39766567 150.24963909 16.41113281 152.21923828 C16.42074036 153.36127716 16.4303479 154.50331604 16.44024658 155.67996216 C16.44449646 156.90190277 16.44874634 158.12384338 16.453125 159.3828125 C16.45882507 160.65542938 16.46452515 161.92804626 16.47039795 163.23922729 C16.47983246 165.93067999 16.48673696 168.62202165 16.49023438 171.31347656 C16.4956947 174.72911484 16.51968493 178.14434961 16.54820633 181.55986214 C16.5715429 184.85498066 16.57329658 188.150123 16.578125 191.4453125 C16.5904718 192.65510773 16.6028186 193.86490295 16.61553955 195.11135864 C16.58191041 208.12053099 14.14470442 219.66515728 5.24609375 229.53515625 C-7.13878491 241.38830488 -23.54051339 243.85191362 -40.06079102 243.70361328 C-42.18245958 243.68753819 -44.30221696 243.70355367 -46.42382812 243.72265625 C-62.5834815 243.74970218 -78.89160986 240.90261838 -91.25 229.625 C-104.07626289 215.31561464 -104.201406 196.99597354 -103.9375 178.9375 C-103.92241208 177.12240705 -103.90873101 175.30730184 -103.89648438 173.4921875 C-103.86641738 169.09839731 -103.80764533 164.70635525 -103.75 160.3125 C-91.54 160.3125 -79.33 160.3125 -66.75 160.3125 C-66.69392578 164.43105469 -66.69392578 164.43105469 -66.63671875 168.6328125 C-66.59045443 171.30379012 -66.53923866 173.97463033 -66.48754883 176.64550781 C-66.45437704 178.49600819 -66.42632113 180.34660786 -66.40356445 182.19726562 C-66.3698755 184.86371003 -66.3175534 187.5292509 -66.26171875 190.1953125 C-66.25532883 191.01742218 -66.2489389 191.83953186 -66.24235535 192.68655396 C-66.08883646 198.73881458 -64.90599 203.02968706 -60.625 207.5625 C-53.51734385 211.88889939 -44.34668369 212.45141178 -36.29296875 210.8125 C-31.28219778 209.34998642 -28.04825222 207.51027555 -24.75 203.3125 C-22.25829653 198.64583038 -22.44378216 194.11085528 -22.44921875 188.953125 C-22.44279106 187.59740387 -22.44279106 187.59740387 -22.43623352 186.21429443 C-22.43050143 184.30465531 -22.42998169 182.39499435 -22.43432617 180.48535156 C-22.43747426 177.58620192 -22.41405434 174.68808524 -22.38867188 171.7890625 C-22.38639736 169.92708461 -22.38569609 168.065104 -22.38671875 166.203125 C-22.377509 165.34656311 -22.36829926 164.49000122 -22.35881042 163.60748291 C-22.40992922 156.8445938 -23.49086945 150.67517221 -27.31835938 144.97802734 C-32.78219031 139.73208846 -38.89367395 135.82174755 -45.40701294 132.01489258 C-47.28650224 130.91616114 -49.15669729 129.80293712 -51.02514648 128.68554688 C-53.48766137 127.21412798 -55.95286278 125.7474483 -58.42138672 124.28613281 C-93.93082677 103.23154037 -93.93082677 103.23154037 -99.75 84.3125 C-102.40756977 73.87204733 -102.08856412 63.10539658 -102.06567383 52.41308594 C-102.06250697 49.319305 -102.08606271 46.22647633 -102.11132812 43.1328125 C-102.16127602 27.40041233 -101.43592466 13.28287439 -90.3125 1.1875 C-68.52558419 -19.57865255 -22.81127364 -18.80133167 0 0 Z " fill="#216FE0" transform="translate(712.75,621.6875)"/>
<path d="M0 0 C12.87 0 25.74 0 39 0 C41.47441548 18.7475984 41.47441548 18.7475984 42.6081543 27.34155273 C43.40059895 33.34842104 44.19311076 39.35528043 44.98599243 45.36209106 C48.07023332 68.7288333 51.14669735 92.09655787 54.20152855 115.46716499 C54.65268947 118.91807815 55.10415483 122.36895134 55.55574036 125.81980896 C55.7028757 126.944189 55.85001104 128.06856905 56.00160503 129.22702122 C56.29577744 131.47496992 56.58996235 133.72291699 56.88416004 135.97086239 C57.75072824 142.59384432 58.61516036 149.21710102 59.47815514 155.84054947 C60.01707573 159.97304505 60.55790431 164.1052893 61.09924316 168.23746872 C61.35102967 170.16264432 61.60199169 172.08792796 61.8520813 174.01332474 C62.19376519 176.64320109 62.53830279 179.27268837 62.88354492 181.90209961 C62.98268283 182.67067449 63.08182074 183.43924936 63.18396282 184.23111439 C63.6225014 187.55003137 64.1483229 190.76380454 65 194 C65.12276778 193.03662909 65.24553556 192.07325817 65.37202358 191.0806942 C68.35860804 167.6450923 71.34651879 144.20965978 74.33582211 120.77440453 C75.78139221 109.44131685 77.22653055 98.10817442 78.6706543 86.77490234 C79.92928004 76.89740023 81.188714 67.02000157 82.44912058 57.14272654 C83.11652966 51.91229771 83.78353257 46.6818178 84.44956779 41.45121384 C85.07646779 36.52805419 85.70444835 31.60503359 86.33325768 26.68211746 C86.56383807 24.87540002 86.79402373 23.06863215 87.02378464 21.2618103 C87.33766136 18.79398082 87.65296103 16.32633712 87.96861267 13.85873413 C88.05908259 13.1447129 88.14955251 12.43069167 88.24276394 11.69503343 C88.74593356 7.7749967 89.34967256 3.90196461 90 0 C102.21 0 114.42 0 127 0 C126.38851187 7.33785755 125.74353655 14.49724692 124.64712524 21.74990845 C124.44688281 23.10606075 124.44688281 23.10606075 124.24259508 24.48961008 C123.80028269 27.47881263 123.35255458 30.46717683 122.90478516 33.45556641 C122.58406181 35.61524726 122.26367192 37.77497766 121.94358826 39.93475342 C121.07713214 45.77443184 120.20591803 51.61339127 119.33374071 57.45221758 C118.41835466 63.58530565 117.50709702 69.71900719 116.5953064 75.85263062 C114.96486347 86.8162318 113.33089919 97.77930458 111.69527118 108.7421333 C110.02214413 119.95680407 108.35300498 131.17206337 106.68545115 142.3875643 C104.79896057 155.07546059 102.91004499 167.76299493 101.02025938 180.45040083 C100.47923655 184.08360508 99.93862356 187.71687012 99.39809036 191.35014725 C98.54433484 197.08781211 97.68891765 202.82522702 96.8322773 208.56246185 C96.52016479 210.65438106 96.20856429 212.74637673 95.89754677 214.83845901 C95.4687774 217.72192336 95.03803152 220.60508639 94.60684204 223.4881897 C94.42837107 224.69295061 94.42837107 224.69295061 94.24629462 225.92205012 C92.93884065 234.63510221 91.44916447 243.30501317 90 252 C72.84 252 55.68 252 38 252 C33.67561366 226.55270994 29.73018892 201.05427706 25.82937026 175.5390873 C25.28788307 171.9979918 24.74583684 168.45698231 24.20360756 164.91600037 C22.30821322 152.53806854 20.4149505 140.15981283 18.52368164 127.78125 C16.76495002 116.2705592 15.00131509 104.76062661 13.23551005 93.251019 C11.71206975 83.3196782 10.19206513 73.38781551 8.67473584 63.45553923 C7.77147198 57.54328213 6.86680904 51.63124748 5.95863914 45.71974182 C5.10840484 40.1846113 4.26243896 34.64884525 3.41978073 29.11255646 C3.11012133 27.08298915 2.79892982 25.05365492 2.48609734 23.02457428 C2.05964224 20.25694568 1.63871125 17.48853124 1.21916199 14.71984863 C1.09417129 13.91734444 0.9691806 13.11484025 0.84040231 12.28801775 C0.67259947 11.1692296 0.67259947 11.1692296 0.50140667 10.02783966 C0.40387087 9.39022343 0.30633506 8.7526072 0.20584363 8.09566927 C-0.05803339 5.40916901 0 2.69942859 0 0 Z " fill="#226FE1" transform="translate(1424,611)"/>
<path d="M0 0 C13.53 0 27.06 0 41 0 C41 114.18 41 228.36 41 346 C27.47 346 13.94 346 0 346 C0 231.82 0 117.64 0 0 Z " fill="#7A858B" transform="translate(1775,517)"/>
<path d="M0 0 C12.54 0 25.08 0 38 0 C38 83.16 38 166.32 38 252 C25.46 252 12.92 252 0 252 C0 168.84 0 85.68 0 0 Z " fill="#1D68DD" transform="translate(1362,611)"/>
<path d="M0 0 C12.54 0 25.08 0 38 0 C38 16.5 38 33 38 50 C25.46 50 12.92 50 0 50 C0 33.5 0 17 0 0 Z " fill="#3087EC" transform="translate(1362,535)"/>
<path d="M0 0 C3.65965838 3.38575463 5.1927538 6.59861966 5.7734375 11.5546875 C5.86037598 18.24895043 5.59830666 22.35313249 1.4375 27.6875 C-3.55510998 32.68010998 -7.10578539 34.82623404 -14.3125 35 C-21.28999308 34.93258461 -24.82496936 33.42503064 -29.8125 28.4375 C-33.40903849 22.78579666 -35.30227042 17.46872889 -34.5625 10.6875 C-32.51725099 4.75627787 -30.12434331 0.24688289 -24.6875 -3.0625 C-16.19847297 -6.45811081 -7.19559595 -6.01599006 0 0 Z " fill="#38B377" transform="translate(1637.5625,301.3125)"/>
<path d="M0 0 C1.2065625 1.11375 1.2065625 1.11375 2.4375 2.25 C3.18 2.86875 3.9225 3.4875 4.6875 4.125 C8.03670872 8.1918963 8.64332553 11.97946346 8.375 17.125 C7.47409243 24.00089225 4.70544116 28.39861946 -0.625 32.75 C-5.61901829 35.20320196 -11.16103692 34.98724705 -16.5625 34.25 C-21.46963015 31.93026575 -24.3736048 28.53223069 -27.5625 24.25 C-29.26118838 19.15393486 -29.57403119 13.25710632 -27.84375 8.11328125 C-22.32393743 -2.14733807 -10.28110849 -5.05036908 0 0 Z " fill="#3BB475" transform="translate(1589.5625,297.75)"/>
<path d="M0 0 C4.2379527 2.92620543 7.69078401 5.97696002 9.625 10.8125 C10.28228611 16.30007474 10.38108529 21.21308882 8 26.25 C2.64447428 32.02833038 -1.33987211 35.26682069 -9.375 35.8125 C-15.39105977 35.37417142 -19.21310942 33.07117873 -23.375 28.8125 C-27.54059582 23.25837224 -27.13635379 16.45319695 -26.375 9.8125 C-24.24026742 5.30584232 -21.45677871 2.6383468 -17.375 -0.1875 C-11.7337252 -2.06792493 -5.59316369 -1.967965 0 0 Z " fill="#28AF81" transform="translate(1674.375,311.1875)"/>
<path d="M0 0 C4.46876455 3.07848225 8.07974831 6.73924494 9.8125 11.9375 C10.5894811 18.18664803 10.15475254 23.05314013 6.42578125 28.2421875 C2.6783616 32.18015391 -1.78246757 34.09769442 -7.1875 34.4375 C-13.27115984 34.07893459 -17.67286045 31.29100769 -22.125 27.3125 C-24.84992905 22.85352519 -25.47587164 19.12818947 -25.1875 13.9375 C-23.34683041 8.02798185 -20.66441289 3.60797613 -15.5 0.125 C-10.10203867 -1.81011821 -5.43700027 -1.81233342 0 0 Z " fill="#545C94" transform="translate(1789.1875,435.0625)"/>
<path d="M0 0 C4.41854291 3.11306432 8.02390999 6.75922996 9.75 11.9375 C10.31384129 17.63012838 10.05719906 22.08694138 6.75 26.9375 C2.14557022 31.87883928 -2.48055033 33.68224172 -9.25 33.9375 C-15.48886835 33.14637544 -19.26197536 30.58929727 -23.15625 25.75390625 C-25.58689201 21.71730435 -25.6287732 17.55853309 -25.25 12.9375 C-23.49822054 7.30134 -21.41304621 3.11475921 -16.25 -0.0625 C-10.88620867 -1.85043044 -5.36227662 -1.75305197 0 0 Z " fill="#12969B" transform="translate(1747.25,364.0625)"/>
<path d="M0 0 C3.76528052 3.39793608 7.3239198 6.69985127 7.80078125 11.921875 C8.05279126 22.58587762 8.05279126 22.58587762 3.5625 27.3125 C-0.27452146 30.95767039 -3.30049935 31.6037735 -8.4375 31.75 C-13.13596348 31.5755521 -16.54111377 31.13738001 -20.4375 28.3125 C-25.30193781 22.92217702 -25.79636606 19.4965662 -25.7109375 12.36328125 C-25.30480315 7.83198232 -24.31733145 5.85690793 -21.4375 2.3125 C-15.04839677 -2.77270461 -7.40694259 -3.63613546 0 0 Z " fill="#317B97" transform="translate(1773.4375,398.6875)"/>
<path d="M0 0 C4.85380713 1.71688384 7.9951258 4.38891868 10.5 8.875 C12.40721022 13.42165292 12.9454864 17.3152231 11.26953125 22.07421875 C9.27750704 26.47293344 7.14307215 29.34418452 3 32 C-2.3766965 33.79223217 -8.57327871 33.94958659 -13.875 31.875 C-21.53488372 25.11627907 -21.53488372 25.11627907 -22 20 C-22.1546875 18.39125 -22.1546875 18.39125 -22.3125 16.75 C-21.8175479 10.81057478 -19.74039573 6.61608175 -15.375 2.5625 C-10.38710878 -0.71900738 -5.87352027 -0.68167712 0 0 Z " fill="#0EA993" transform="translate(1710,332)"/>
<path d="M0 0 C4.46207218 2.57808615 7.16942068 5.02296667 8.671875 10.09375 C9.57899749 16.81470301 9.15128947 21.95095342 5.0859375 27.50390625 C1.61455259 31.40681691 -2.01626649 32.69808994 -7.21484375 33.1484375 C-11.91497081 33.02680759 -15.69071829 31.63170468 -19.12890625 28.40234375 C-23.72411852 23.14910586 -24.68260567 19.8581518 -24.609375 12.85546875 C-24.08732174 7.72919581 -21.45248965 5.10842054 -17.765625 1.78125 C-12.58673359 -1.80413636 -5.86321618 -2.28232576 0 0 Z " fill="#32B27B" transform="translate(1543.328125,304.90625)"/>
<path d="M0 0 C3.75518452 3.30813875 5.37299768 5.93247808 5.90625 10.96875 C6.07316225 16.14302985 6.19147857 20.25409335 2.625 24.3125 C-2.2994427 28.6364009 -5.23474884 29.72564292 -11.69921875 29.66015625 C-17.07673062 28.96147223 -20.7421051 26.04745083 -24.375 22.1875 C-25.9804572 17.57181056 -26.01360109 13.13748598 -25.375 8.3125 C-23.19711093 3.8760593 -20.46064574 1.07031087 -16.375 -1.6875 C-10.72324365 -3.54015042 -5.2320569 -2.61602845 0 0 Z " fill="#793B90" transform="translate(1800.375,478.6875)"/>
<path d="M0 0 C2.98869051 2.8795146 4.46775873 5.12258693 5.125 9.3125 C5.18992659 15.31820927 4.19822093 19.68884381 0.125 24.3125 C-4.4248265 27.41465443 -8.52046049 28.08509889 -13.875 27.3125 C-18.74478839 25.59375116 -22.3747252 22.87649368 -24.875 18.3125 C-26.39095317 13.55311215 -26.34209306 9.57937595 -24.3125 5 C-21.82388957 0.6772234 -18.54856539 -1.528955 -14 -3.5 C-8.38692628 -3.99527121 -4.41416327 -3.52027217 0 0 Z " fill="#1DAD89" transform="translate(1504.875,324.6875)"/>
<path d="M0 0 C3.35787062 3.45663152 4.42514102 6.2565535 4.5 11.0625 C4.37977371 15.86447956 3.52332161 18.61490548 0.125 22.1875 C-4.28362117 24.81571647 -7.87715717 25.77009359 -12.87890625 24.90234375 C-16.54855001 23.58816604 -19.35724619 21.12123053 -21.875 18.1875 C-23.11699848 14.46150457 -23.41008555 11.05770783 -22.875 7.1875 C-20.48129091 2.65655066 -17.87189308 -0.52811725 -13.125 -2.5625 C-8.11343225 -3.11934086 -4.21887576 -2.65972602 0 0 Z " fill="#06A49A" transform="translate(1466.875,349.8125)"/>
<path d="M0 0 C3.23392475 3.3168459 4.90084662 5.68621767 5.25 10.3125 C4.93056324 15.0241922 3.69502891 17.47778315 0.19921875 20.6171875 C-3.62022136 23.01875375 -7.63826346 22.52312561 -12 22 C-15.93775208 20.35926997 -17.38734312 18.86758404 -19 15 C-19.64698574 11.25429308 -19.7969399 7.6178222 -18.08984375 4.15234375 C-13.22482528 -2.21441675 -7.00371609 -3.21065876 0 0 Z " fill="#1E8C99" transform="translate(1434,382)"/>
<path d="M0 0 C2.52726683 2.19029792 4.50012869 4.00025739 6 7 C6.12150428 11.49565838 5.80266747 14.9715823 3 18.5625 C-1.09270946 20.52358995 -4.54004525 20.82412207 -9 20 C-11.87029869 18.20606332 -13.49131638 17.01736724 -15 14 C-15.40335728 9.80508432 -15.24198067 7.4749991 -13.3125 3.6875 C-9.33430186 -0.93581135 -5.83644571 -1.82388928 0 0 Z " fill="#406D96" transform="translate(1408,420)"/>
<path d="M0 0 C2.5625 1.4375 2.5625 1.4375 4 4 C4.59785451 7.13298755 4.64850375 9.87226065 4 13 C1.87514581 15.72246943 0.42877889 16.73121981 -2.97265625 17.37109375 C-6.2917471 17.57582272 -8.61762348 17.2198665 -11.5 15.5625 C-13.7380068 11.73923839 -13.75280262 8.31870978 -13 4 C-10.13958663 -1.09899775 -5.27536918 -0.91955977 0 0 Z " fill="#664C92" transform="translate(1393,463)"/>
<path d="M0 0 C3.5 0.625 3.5 0.625 6 2.6875 C7.94931249 6.50490362 7.65426305 8.54660388 6.5 12.625 C2.80513897 15.08824069 0.86706908 15.01491688 -3.5 14.625 C-6.17089215 13.02246471 -6.46731349 11.72523864 -7.4375 8.75 C-7.5 5.625 -7.5 5.625 -6 2.75 C-3.5 0.625 -3.5 0.625 0 0 Z " fill="#8D298E" transform="translate(1382.5,507.375)"/>
</svg>
